{"title":"Billa The Don 2014 Malayalam WEBRip x264-N3kr4","uid":11378387,"size":918551512,"categoryP":"video","categoryS":"movies","magnet":"?xt=urn:btih:e5135629aeb2d4aeed005318e15de4b17c9cb979&amp;dn=Billa+The+Don+2014+Malayalam+WEBRip+x264-N3kr4&amp;tr=udp%3A%2F%2Ftracker.openbittorrent.com%3A80&amp;tr=udp%3A%2F%2Fopen.demonii.com%3A1337&amp;tr=udp%3A%2F%2Ftracker.coppersurfer.tk%3A6969&amp;tr=udp%3A%2F%2Fexodus.desync.com%3A6969","seeders":6,"leechers":0,"uploader":"Falcon.G13","files":1,"time":1415183188,"description":" &lt;a href=&quot;http://i.imgur.com/89mhFHH.jpg&quot; rel=&quot;nofollow&quot; target=&quot;_NEW&quot;&gt;http://i.imgur.com/89mhFHH.jpg&lt;/a&gt; &lt;a href=&quot;\nhttp://i.imgur.com/IMZOwr8.jpg&quot; rel=&quot;nofollow&quot; target=&quot;_NEW&quot;&gt;\nhttp://i.imgur.com/IMZOwr8.jpg&lt;/a&gt; &lt;a href=&quot;\nhttp://i.imgur.com/FcVoZQM.jpg&quot; rel=&quot;nofollow&quot; target=&quot;_NEW&quot;&gt;\nhttp://i.imgur.com/FcVoZQM.jpg&lt;/a&gt; &lt;a href=&quot;\nhttp://i.imgur.com/q2OvG2e.jpg&quot; rel=&quot;nofollow&quot; target=&quot;_NEW&quot;&gt;\nhttp://i.imgur.com/q2OvG2e.jpg&lt;/a&gt; &lt;a href=&quot;\nhttp://i.imgur.com/cWx6Sk3.jpg&quot; rel=&quot;nofollow&quot; target=&quot;_NEW&quot;&gt;\nhttp://i.imgur.com/cWx6Sk3.jpg&lt;/a&gt; &lt;a href=&quot;\nhttp://i.imgur.com/cCjkZay.jpg&quot; rel=&quot;nofollow&quot; target=&quot;_NEW&quot;&gt;\nhttp://i.imgur.com/cCjkZay.jpg&lt;/a&gt; &lt;a href=&quot;\nhttp://i.imgur.com/JBEbogc.jpg&quot; rel=&quot;nofollow&quot; target=&quot;_NEW&quot;&gt;\nhttp://i.imgur.com/JBEbogc.jpg&lt;/a&gt; &lt;a href=&quot;\nhttp://i.imgur.com/Z6R0HkG.jpg&quot; rel=&quot;nofollow&quot; target=&quot;_NEW&quot;&gt;\nhttp://i.imgur.com/Z6R0HkG.jpg&lt;/a&gt; &lt;a href=&quot;\nhttp://i.imgur.com/SEXjMgm.jpg&quot; rel=&quot;nofollow&quot; target=&quot;_NEW&quot;&gt;\nhttp://i.imgur.com/SEXjMgm.jpg&lt;/a&gt;\n\nGeneral\nComplete name :Billa The Don 2014 Malayalam WEBRip x264-N3kr4.mp4\nFormat : MPEG-4\nFormat profile : Base Media\nCodec ID : isom\nFile size : 876 MiB\nDuration : 2h 31mn\nOverall bit rate : 810 Kbps\nWriting application : Lavf54.63.104\n\nVideo\nID : 1\nFormat : AVC\nFormat/Info : Advanced Video Codec\nFormat profile : &lt;a class=&quot;__cf_email__&quot; href=&quot;/cdn-cgi/l/email-protection&quot; data-cfemail=&quot;8cc1ede5e2ccc0bea2bd&quot;&gt;[email&amp;#160;protected]&lt;/a&gt;&lt;script cf-hash='f9e31' type=&quot;text/javascript&quot;&gt;\n/* &lt;![CDATA[ */!function(){try{var t=&quot;currentScript&quot;in document?document.currentScript:function(){for(var t=document.getElementsByTagName(&quot;script&quot;),e=t.length;e--;)if(t[e].getAttribute(&quot;cf-hash&quot;))return t[e]}();if(t&amp;&amp;t.previousSibling){var e,r,n,i,c=t.previousSibling,a=c.getAttribute(&quot;data-cfemail&quot;);if(a){for(e=&quot;&quot;,r=parseInt(a.substr(0,2),16),n=2;a.length-n;n+=2)i=parseInt(a.substr(n,2),16)^r,e+=String.fromCharCode(i);e=document.createTextNode(e),c.parentNode.replaceChild(e,c)}}}catch(u){}}();/* ]]&gt; */&lt;/script&gt;\nFormat settings, CABAC : Yes\nFormat settings, ReFrames : 1 frame\nCodec ID : avc1\nCodec ID/Info : Advanced Video Coding\nDuration : 2h 31mn\nBit rate : 679 Kbps\nWidth : 640 pixels\nHeight : 272 pixels\nDisplay aspect ratio : 2.35:1\nFrame rate mode : Constant\nFrame rate : 24.000 fps\nColor space : YUV\nChroma subsampling : 4:2:0\nBit depth : 8 bits\nScan type : Progressive\nBits/(Pixel*Frame) : 0.163\nStream size : 734 MiB (84%)\nWriting library : x264 core 129\n\nAudio\nID : 2\nFormat : MPEG Audio\nFormat version : Version 1\nFormat profile : Layer 3\nMode : Joint stereo\nMode extension : MS Stereo\nCodec ID : 6B\nDuration : 2h 31mn\nDuration_FirstFrame : 72ms\nBit rate mode : Constant\nBit rate : 128 Kbps\nChannel(s) : 2 channels\nSampling rate : 48.0 KHz\nCompression mode : Lossy\nStream size : 138 MiB (16%)\nWriting library : LAME3.99.5","torrent":{"xt":"urn:btih:e5135629aeb2d4aeed005318e15de4b17c9cb979","amp;dn":"Billa+The+Don+2014+Malayalam+WEBRip+x264-N3kr4","amp;tr":["udp%3A%2F%2Ftracker.openbittorrent.com%3A80","udp%3A%2F%2Fopen.demonii.com%3A1337","udp%3A%2F%2Ftracker.coppersurfer.tk%3A6969","udp%3A%2F%2Fexodus.desync.com%3A6969"],"infoHash":"e5135629aeb2d4aeed005318e15de4b17c9cb979","infoHashBuffer":{"type":"Buffer","data":[229,19,86,41,174,178,212,174,237,0,83,24,225,93,228,177,124,156,185,121]},"announce":[],"urlList":[]}}